<svg width="100" height="100" viewBox="0 0 100 100" fill="none" xmlns="http://www.w3.org/2000/svg">
<path d="M50 82.8747L23.8869 99.3321C23.1381 99.8219 22.3426 100.042 21.5002 99.9933C20.6578 99.9443 19.9091 99.6749 19.2539 99.1851C18.5987 98.6953 18.1074 98.0586 17.7798 97.2749C17.4522 96.4912 17.382 95.6096 17.5692 94.63L24.4485 63.4785L1.42399 42.4659C0.675224 41.7802 0.230646 41.021 0.0902527 40.1883C-0.0501404 39.3557 -0.0267415 38.5475 0.160449 37.7638C0.34764 36.9801 0.768819 36.3189 1.42399 35.7801C2.07916 35.2413 2.87472 34.923 3.81067 34.825L34.276 32.0331L46.069 2.64494C46.4434 1.76329 47.0049 1.10206 47.7537 0.661234C48.5025 0.220411 49.2512 0 50 0C50.7488 0 51.4975 0.220411 52.2463 0.661234C52.9951 1.10206 53.5566 1.76329 53.931 2.64494L65.724 32.0331L96.1893 34.825C97.1253 34.923 97.9209 35.2413 98.576 35.7801C99.2312 36.3189 99.6524 36.9801 99.8396 37.7638C100.027 38.5475 100.05 39.3557 99.9098 40.1883C99.7694 41.021 99.3248 41.7802 98.576 42.4659L75.5516 63.4785L82.4308 94.63C82.618 95.6096 82.5478 96.4912 82.2202 97.2749C81.8926 98.0586 81.4013 98.6953 80.7461 99.1851C80.0909 99.6749 79.3422 99.9443 78.4998 99.9933C77.6574 100.042 76.8619 99.8219 76.1131 99.3321L50 82.8747Z" fill="#FFD600"/>
</svg>
