<svg width="100" height="100" viewBox="0 0 100 100" fill="none" xmlns="http://www.w3.org/2000/svg">
<path d="M51.5995 80.3367L50 79.3286L48.4005 80.3367L22.2873 96.7941L22.2659 96.8076L22.2446 96.8215C21.9992 96.9821 21.8349 97.0077 21.6743 96.9984C21.3995 96.9824 21.2189 96.9085 21.0502 96.7824C20.8413 96.6262 20.6768 96.4268 20.5477 96.1179C20.486 95.9704 20.4227 95.7098 20.5093 95.2285L27.3779 64.1254L27.7519 62.4318L26.4707 61.2626L3.45013 40.2535C3.44969 40.2531 3.44925 40.2527 3.44882 40.2523C3.09118 39.9244 3.05657 39.7374 3.0485 39.6896C2.97181 39.2347 2.98924 38.8339 3.07836 38.4608C3.1053 38.348 3.15083 38.2442 3.32949 38.0972C3.4795 37.9739 3.69984 37.8554 4.10721 37.8104L34.5497 35.0206L36.3769 34.8532L37.0602 33.1504L48.8398 3.79549C48.9872 3.45789 49.1405 3.3261 49.2757 3.24647C49.6382 3.03307 49.8673 3 50 3C50.1327 3 50.3618 3.03307 50.7243 3.24647C50.8595 3.32611 51.0128 3.45791 51.1602 3.79559L62.9398 33.1504L63.6231 34.8532L65.4502 35.0206L95.8928 37.8104C96.3002 37.8554 96.5205 37.9739 96.6705 38.0972C96.8492 38.2442 96.8947 38.348 96.9216 38.4608C97.0108 38.8339 97.0282 39.2347 96.9515 39.6896C96.9434 39.7375 96.9088 39.9248 96.5502 40.2533C96.5501 40.2533 96.55 40.2534 96.5499 40.2535L73.5293 61.2626L72.2481 62.4318L72.6221 64.1254L79.4907 95.2285C79.5774 95.7098 79.514 95.9704 79.4523 96.1179C79.3232 96.4268 79.1587 96.6262 78.9498 96.7824C78.7811 96.9085 78.6005 96.9824 78.3257 96.9984C78.1651 97.0077 78.0008 96.9821 77.7554 96.8215L77.7341 96.8076L77.7127 96.7941L51.5995 80.3367Z" stroke="#FFD600" stroke-width="6"/>
</svg>
